<svg xmlns="http://www.w3.org/2000/svg" viewBox="0 0 626 626" width="40" height="40">
  <g>
    <rect x="60" y="250" width="100" height="200" fill="#222" />
    <rect x="180" y="180" width="150" height="270" fill="#222" />
    <rect x="350" y="120" width="180" height="330" fill="#222" />
    <rect x="60" y="250" width="100" height="200" stroke="#222" stroke-width="8" fill="none" />
    <rect x="180" y="180" width="150" height="270" stroke="#222" stroke-width="8" fill="none" />
    <rect x="350" y="120" width="180" height="330" stroke="#222" stroke-width="8" fill="none" />
    <rect x="90" y="280" width="30" height="40" fill="#fff" />
    <rect x="210" y="210" width="30" height="40" fill="#fff" />
    <rect x="250" y="210" width="30" height="40" fill="#fff" />
    <rect x="210" y="270" width="30" height="40" fill="#fff" />
    <rect x="250" y="270" width="30" height="40" fill="#fff" />
    <rect x="390" y="150" width="30" height="40" fill="#fff" />
    <rect x="430" y="150" width="30" height="40" fill="#fff" />
    <rect x="470" y="150" width="30" height="40" fill="#fff" />
    <rect x="390" y="210" width="30" height="40" fill="#fff" />
    <rect x="430" y="210" width="30" height="40" fill="#fff" />
    <rect x="470" y="210" width="30" height="40" fill="#fff" />
  </g>
</svg>
